<svg xmlns="http://www.w3.org/2000/svg" width="412" height="146" viewBox="0 0 412 146" fill="none"><path d="M48.5495 0.786255H22.4787C9.88223 0.786255 1.10938 12.8334 1.10938 23.6474V83.2317H14.0559V23.6474C14.0559 19.6999 17.4164 13.7328 22.4787 13.7328H48.5495V0.786255Z" fill="black"></path><path d="M286.273 0.786255H247.412V83.2317H260.359V13.7328H286.273C299.92 13.7328 303.657 18.235 303.657 34.6929V83.2317H316.604V34.6929C316.604 18.9082 313.157 0.786255 286.273 0.786255Z" fill="black"></path><path d="M102.253 0.786255H70.6296V13.7328H102.253C107.315 13.7328 110.676 19.6999 110.676 23.6474V34.0197H68.6209C57.807 34.0197 45.7598 42.7979 45.7598 55.389V61.1084C45.7598 73.7049 57.807 82.4777 68.6209 82.4777H123.622V23.6474C123.622 12.8334 114.844 0.786255 102.253 0.786255ZM68.6209 69.5312C64.6734 69.5312 58.7063 66.1707 58.7063 61.1084V55.389C58.7063 50.3267 64.6734 46.9662 68.6209 46.9662H110.676V69.5312H68.6209Z" fill="black"></path><path d="M390.27 0.786255H356.337V13.7328H390.27C395.333 13.7328 398.693 19.6999 398.693 23.6474V34.0197H356.638C345.825 34.0197 333.777 42.7979 333.777 55.389V61.1084C333.777 73.7049 345.825 82.4777 356.638 82.4777H411.64V23.6474C411.64 12.8334 402.862 0.786255 390.27 0.786255ZM356.638 69.5312C352.691 69.5312 346.724 66.1707 346.724 61.1084V55.389C346.724 50.3267 352.691 46.9662 356.638 46.9662H398.693V69.5312H356.638Z" fill="black"></path><path d="M185.678 0C162.817 0 144.216 18.6012 144.216 41.4624C144.216 64.3235 162.817 82.9247 185.678 82.9247C208.539 82.9247 227.141 64.3235 227.141 41.4624C227.141 18.6012 208.539 0 185.678 0ZM185.678 69.9728C169.958 69.9728 157.162 57.1824 157.162 41.457C157.162 25.7315 169.953 12.9412 185.678 12.9412C201.404 12.9412 214.189 25.7315 214.189 41.457C214.189 57.1824 201.398 69.9728 185.678 69.9728Z" fill="black"></path><path d="M8.96672 134.786C10.0761 134.786 10.997 134.463 11.7294 133.817C12.4619 133.171 12.8496 132.368 12.9035 131.42H17.0987C17.0502 132.654 16.6625 133.801 15.9462 134.872C15.2246 135.939 14.2498 136.784 13.0166 137.409C11.7833 138.034 10.4531 138.341 9.02596 138.341C6.25247 138.341 4.06061 137.441 2.43421 135.648C0.813198 133.855 0 131.377 0 128.216V127.758C0 124.742 0.802428 122.33 2.41805 120.515C4.02829 118.705 6.22555 117.795 9.00981 117.795C11.3632 117.795 13.2858 118.485 14.7668 119.853C16.2478 121.226 17.0287 123.03 17.1041 125.265H12.9089C12.8604 124.129 12.4726 123.197 11.7456 122.464C11.0186 121.732 10.0923 121.366 8.97211 121.366C7.5342 121.366 6.41942 121.888 5.63853 122.933C4.85765 123.978 4.45913 125.561 4.44836 127.683V128.399C4.44836 130.548 4.83611 132.147 5.61161 133.203C6.38711 134.259 7.50728 134.786 8.97211 134.786" fill="black"></path><path d="M19.625 127.882C19.625 125.943 20.0074 124.193 20.7775 122.637C21.5476 121.08 22.6247 119.885 24.0195 119.05C25.4089 118.215 27.0084 117.795 28.8179 117.795C31.4891 117.795 33.6594 118.657 35.3235 120.375C36.9876 122.098 37.887 124.376 38.0216 127.22L38.0378 128.265C38.0378 130.219 37.6608 131.964 36.9122 133.499C36.1636 135.039 35.0865 136.23 33.6917 137.07C32.2969 137.91 30.6813 138.335 28.8502 138.335C26.0552 138.335 23.8202 137.404 22.14 135.546C20.4597 133.682 19.625 131.205 19.625 128.103V127.882ZM24.0734 128.265C24.0734 130.306 24.4934 131.9 25.3389 133.052C26.1791 134.205 27.3531 134.781 28.8556 134.781C30.3581 134.781 31.5268 134.194 32.3615 133.025C33.1963 131.851 33.6163 130.139 33.6163 127.882C33.6163 125.879 33.1855 124.296 32.3238 123.121C31.4622 121.947 30.2935 121.366 28.8179 121.366C27.3423 121.366 26.2114 121.942 25.3551 123.095C24.4988 124.247 24.0734 125.97 24.0734 128.265Z" fill="black"></path><path d="M40.9727 127.92C40.9727 124.866 41.6781 122.421 43.0945 120.569C44.5109 118.722 46.4065 117.795 48.7869 117.795C50.8872 117.795 52.5836 118.528 53.8761 119.993V109.852H58.3245V137.974H54.2962L54.0754 135.923C52.7452 137.533 50.968 138.341 48.7492 138.341C46.5304 138.341 44.554 137.409 43.1214 135.54C41.6889 133.672 40.9727 131.135 40.9727 127.925M45.421 128.308C45.421 130.322 45.8088 131.894 46.5843 133.02C47.3598 134.151 48.4584 134.711 49.8909 134.711C51.7112 134.711 53.0414 133.898 53.8815 132.277V123.816C53.0629 122.228 51.7435 121.436 49.9286 121.436C48.4907 121.436 47.3759 122.007 46.595 123.148C45.8142 124.29 45.421 126.008 45.421 128.302" fill="black"></path><path d="M62.9775 113.018C62.9775 112.334 63.193 111.769 63.6292 111.317C64.06 110.864 64.6793 110.638 65.4871 110.638C66.295 110.638 66.9143 110.864 67.3559 111.317C67.7975 111.769 68.0129 112.334 68.0129 113.018C68.0129 113.702 67.7921 114.246 67.3559 114.693C66.9143 115.14 66.295 115.361 65.4871 115.361C64.6793 115.361 64.06 115.14 63.6292 114.693C63.1983 114.246 62.9775 113.692 62.9775 113.018ZM67.7006 137.969H63.2522V118.161H67.7006V137.969Z" fill="black"></path><path d="M76.6723 118.162L76.8015 120.45C78.2664 118.679 80.189 117.795 82.5693 117.795C86.6946 117.795 88.7949 120.16 88.8649 124.883V137.974H84.4165V125.141C84.4165 123.886 84.1472 122.955 83.6033 122.351C83.0594 121.748 82.1708 121.447 80.9375 121.447C79.1442 121.447 77.8086 122.26 76.9308 123.881V137.98H72.4824V118.172H76.6777L76.6723 118.162Z" fill="black"></path><path d="M92.6133 127.92C92.6133 124.845 93.3349 122.389 94.7836 120.553C96.2323 118.716 98.1495 117.795 100.541 117.795C102.797 117.795 104.574 118.582 105.867 120.16L106.066 118.167H110.078V137.371C110.078 139.972 109.27 142.019 107.655 143.521C106.039 145.024 103.858 145.773 101.111 145.773C99.6574 145.773 98.241 145.471 96.857 144.868C95.4729 144.265 94.4174 143.473 93.7011 142.498L95.8068 139.827C97.1747 141.448 98.8604 142.261 100.858 142.261C102.334 142.261 103.503 141.863 104.354 141.06C105.21 140.263 105.635 139.084 105.635 137.538V136.203C104.354 137.63 102.646 138.346 100.508 138.346C98.1872 138.346 96.2969 137.425 94.8267 135.583C93.3565 133.742 92.6187 131.189 92.6187 127.931M97.0509 128.313C97.0509 130.3 97.4548 131.867 98.268 133.009C99.0812 134.151 100.207 134.722 101.645 134.722C103.438 134.722 104.768 133.952 105.635 132.417V123.703C104.795 122.201 103.476 121.452 101.682 121.452C100.217 121.452 99.0812 122.034 98.268 123.191C97.4548 124.349 97.0509 126.062 97.0509 128.318" fill="black"></path><path d="M132.12 134.786C133.229 134.786 134.15 134.463 134.883 133.817C135.615 133.171 136.003 132.368 136.057 131.42H140.252C140.204 132.654 139.816 133.801 139.1 134.872C138.378 135.939 137.403 136.784 136.17 137.409C134.937 138.034 133.606 138.341 132.179 138.341C129.406 138.341 127.214 137.441 125.588 135.648C123.967 133.855 123.153 131.377 123.153 128.216V127.758C123.153 124.742 123.956 122.33 125.571 120.515C127.182 118.705 129.379 117.795 132.163 117.795C134.517 117.795 136.439 118.485 137.92 119.853C139.401 121.226 140.182 123.03 140.257 125.265H136.062C136.014 124.129 135.626 123.197 134.899 122.464C134.172 121.732 133.251 121.366 132.125 121.366C130.688 121.366 129.573 121.888 128.792 122.933C128.011 123.978 127.612 125.561 127.602 127.683V128.399C127.602 130.548 127.989 132.147 128.765 133.203C129.54 134.259 130.661 134.786 132.125 134.786" fill="black"></path><path d="M142.779 127.882C142.779 125.943 143.161 124.193 143.931 122.637C144.701 121.08 145.779 119.885 147.173 119.05C148.568 118.215 150.162 117.795 151.972 117.795C154.643 117.795 156.813 118.657 158.477 120.375C160.141 122.098 161.041 124.376 161.175 127.22L161.192 128.265C161.192 130.219 160.815 131.964 160.066 133.499C159.317 135.039 158.24 136.23 156.846 137.07C155.451 137.91 153.835 138.335 152.004 138.335C149.209 138.335 146.974 137.404 145.294 135.546C143.614 133.682 142.773 131.205 142.773 128.103V127.882H142.779ZM147.227 128.265C147.227 130.306 147.647 131.9 148.493 133.052C149.333 134.205 150.507 134.781 152.009 134.781C153.512 134.781 154.681 134.194 155.515 133.025C156.35 131.851 156.77 130.139 156.77 127.882C156.77 125.879 156.339 124.296 155.478 123.121C154.616 121.947 153.447 121.366 151.972 121.366C150.496 121.366 149.365 121.942 148.509 123.095C147.653 124.247 147.227 125.97 147.227 128.265Z" fill="black"></path><path d="M175.328 122.227C174.741 122.131 174.138 122.082 173.514 122.082C171.472 122.082 170.105 122.863 169.394 124.425V137.974H164.945V118.167H169.194L169.302 120.38C170.374 118.657 171.866 117.801 173.772 117.801C174.407 117.801 174.93 117.887 175.345 118.059L175.328 122.233V122.227Z" fill="black"></path><path d="M195.485 128.265C195.485 131.329 194.79 133.774 193.396 135.594C192.006 137.42 190.137 138.33 187.795 138.33C185.624 138.33 183.885 137.614 182.576 136.187V145.579H178.128V118.156H182.226L182.409 120.17C183.713 118.582 185.49 117.79 187.736 117.79C190.154 117.79 192.049 118.689 193.423 120.488C194.796 122.287 195.48 124.786 195.48 127.985V128.259L195.485 128.265ZM191.053 127.882C191.053 125.906 190.66 124.339 189.874 123.175C189.087 122.017 187.962 121.436 186.497 121.436C184.677 121.436 183.373 122.184 182.576 123.687V132.476C183.384 134.011 184.698 134.781 186.529 134.781C187.946 134.781 189.055 134.21 189.852 133.068C190.649 131.927 191.053 130.198 191.053 127.877" fill="black"></path><path d="M198.415 127.882C198.415 125.943 198.797 124.193 199.567 122.637C200.337 121.08 201.414 119.885 202.809 119.05C204.204 118.215 205.798 117.795 207.607 117.795C210.279 117.795 212.449 118.657 214.113 120.375C215.777 122.098 216.677 124.376 216.811 127.22L216.827 128.265C216.827 130.219 216.45 131.964 215.702 133.499C214.953 135.039 213.876 136.23 212.481 137.07C211.086 137.91 209.471 138.335 207.64 138.335C204.845 138.335 202.61 137.404 200.93 135.546C199.249 133.682 198.409 131.205 198.409 128.103V127.882H198.415ZM202.863 128.265C202.863 130.306 203.283 131.9 204.128 133.052C204.969 134.205 206.143 134.781 207.645 134.781C209.148 134.781 210.316 134.194 211.151 133.025C211.986 131.851 212.406 130.139 212.406 127.882C212.406 125.879 211.975 124.296 211.113 123.121C210.252 121.947 209.083 121.366 207.607 121.366C206.132 121.366 205.001 121.942 204.145 123.095C203.288 124.247 202.863 125.97 202.863 128.265Z" fill="black"></path><path d="M230.964 122.227C230.377 122.131 229.774 122.082 229.149 122.082C227.108 122.082 225.74 122.863 225.029 124.425V137.974H220.581V118.167H224.83L224.938 120.38C226.01 118.657 227.501 117.801 229.402 117.801C230.038 117.801 230.56 117.887 230.975 118.059L230.959 122.233L230.964 122.227Z" fill="black"></path><path d="M245.064 137.969C244.87 137.592 244.698 136.973 244.552 136.122C243.136 137.597 241.402 138.335 239.35 138.335C237.298 138.335 235.736 137.77 234.482 136.634C233.221 135.497 232.597 134.097 232.597 132.422C232.597 130.311 233.383 128.69 234.95 127.559C236.517 126.428 238.763 125.868 241.676 125.868H244.407V124.57C244.407 123.547 244.121 122.723 243.545 122.109C242.969 121.495 242.097 121.183 240.928 121.183C239.915 121.183 239.086 121.436 238.44 121.942C237.794 122.448 237.47 123.095 237.47 123.875H233.022C233.022 122.788 233.383 121.775 234.105 120.827C234.826 119.879 235.801 119.142 237.045 118.603C238.284 118.065 239.668 117.795 241.192 117.795C243.508 117.795 245.36 118.377 246.739 119.546C248.117 120.714 248.828 122.351 248.861 124.462V133.397C248.861 135.179 249.108 136.601 249.609 137.662V137.974H245.069L245.064 137.969ZM240.174 134.765C241.052 134.765 241.881 134.549 242.657 134.124C243.432 133.698 244.014 133.122 244.407 132.401V128.668H242.01C240.362 128.668 239.124 128.954 238.294 129.53C237.465 130.106 237.05 130.914 237.05 131.964C237.05 132.821 237.336 133.499 237.901 134.005C238.467 134.512 239.226 134.765 240.179 134.765" fill="black"></path><path d="M259.088 113.347V118.161H262.583V121.457H259.088V132.514C259.088 133.273 259.239 133.817 259.535 134.151C259.836 134.485 260.37 134.652 261.134 134.652C261.646 134.652 262.168 134.592 262.691 134.469V137.91C261.678 138.19 260.704 138.33 259.761 138.33C256.341 138.33 254.634 136.445 254.634 132.67V121.447H251.376V118.151H254.634V113.336H259.083L259.088 113.347Z" fill="black"></path><path d="M274.704 138.335C271.888 138.335 269.599 137.447 267.849 135.67C266.099 133.892 265.221 131.528 265.221 128.577V128.028C265.221 126.051 265.603 124.285 266.362 122.728C267.127 121.172 268.193 119.96 269.578 119.093C270.956 118.226 272.496 117.795 274.193 117.795C276.891 117.795 278.975 118.657 280.445 120.375C281.916 122.098 282.653 124.532 282.653 127.678V129.471H269.712C269.847 131.108 270.391 132.401 271.349 133.354C272.308 134.307 273.514 134.781 274.963 134.781C276.999 134.781 278.663 133.957 279.944 132.309L282.341 134.598C281.549 135.783 280.488 136.698 279.164 137.355C277.839 138.007 276.352 138.335 274.704 138.335ZM274.171 121.366C272.949 121.366 271.963 121.791 271.215 122.648C270.466 123.504 269.987 124.694 269.777 126.218H278.253V125.89C278.156 124.403 277.758 123.272 277.063 122.513C276.369 121.748 275.405 121.371 274.171 121.371" fill="black"></path><path d="M297.001 137.969V121.457H293.979V118.162H297.001V116.347C297.001 114.149 297.609 112.453 298.832 111.257C300.054 110.062 301.761 109.464 303.959 109.464C304.74 109.464 305.569 109.572 306.447 109.793L306.339 113.272C305.849 113.175 305.283 113.126 304.637 113.126C302.515 113.126 301.454 114.219 301.454 116.4V118.156H305.483V121.452H301.454V137.964H297.006L297.001 137.969Z" fill="black"></path><path d="M320.729 136.03C319.42 137.571 317.568 138.335 315.166 138.335C313.017 138.335 311.391 137.705 310.287 136.45C309.183 135.196 308.628 133.375 308.628 130.995V118.162H313.076V130.941C313.076 133.456 314.121 134.711 316.205 134.711C318.289 134.711 319.824 133.935 320.578 132.384V118.162H325.027V137.969H320.837L320.729 136.03Z" fill="black"></path><path d="M335.135 113.347V118.161H338.63V121.457H335.135V132.514C335.135 133.273 335.286 133.817 335.582 134.151C335.883 134.485 336.417 134.652 337.181 134.652C337.693 134.652 338.215 134.592 338.738 134.469V137.91C337.725 138.19 336.75 138.33 335.808 138.33C332.388 138.33 330.681 136.445 330.681 132.67V121.447H327.423V118.151H330.681V113.336H335.129L335.135 113.347Z" fill="black"></path><path d="M354.027 136.03C352.718 137.571 350.866 138.335 348.464 138.335C346.315 138.335 344.689 137.705 343.585 136.45C342.48 135.196 341.926 133.375 341.926 130.995V118.162H346.374V130.941C346.374 133.456 347.419 134.711 349.503 134.711C351.587 134.711 353.122 133.935 353.876 132.384V118.162H358.324V137.969H354.135L354.027 136.03Z" fill="black"></path><path d="M373.231 122.227C372.644 122.131 372.041 122.082 371.416 122.082C369.375 122.082 368.007 122.863 367.296 124.425V137.974H362.848V118.167H367.097L367.204 120.38C368.276 118.657 369.768 117.801 371.669 117.801C372.304 117.801 372.827 117.887 373.242 118.059L373.225 122.233L373.231 122.227Z" fill="black"></path><path d="M384.767 138.335C381.95 138.335 379.662 137.447 377.911 135.67C376.161 133.892 375.283 131.528 375.283 128.577V128.028C375.283 126.051 375.666 124.285 376.425 122.728C377.19 121.172 378.256 119.96 379.64 119.093C381.019 118.226 382.559 117.795 384.255 117.795C386.953 117.795 389.038 118.657 390.508 120.375C391.978 122.098 392.716 124.532 392.716 127.678V129.471H379.769C379.904 131.108 380.448 132.401 381.406 133.354C382.365 134.307 383.571 134.781 385.02 134.781C387.056 134.781 388.72 133.957 390.002 132.309L392.398 134.598C391.606 135.783 390.545 136.698 389.221 137.355C387.896 138.007 386.41 138.335 384.762 138.335M384.228 121.366C383.006 121.366 382.02 121.791 381.272 122.648C380.523 123.504 380.044 124.694 379.834 126.218H388.311V125.89C388.214 124.403 387.815 123.272 387.12 122.513C386.426 121.748 385.462 121.371 384.228 121.371" fill="black"></path><path d="M407.267 132.589C407.267 131.797 406.939 131.194 406.287 130.774C405.636 130.359 404.553 129.993 403.04 129.676C401.526 129.358 400.261 128.954 399.248 128.469C397.03 127.398 395.915 125.841 395.915 123.8C395.915 122.093 396.637 120.66 398.074 119.519C399.512 118.372 401.343 117.795 403.568 117.795C405.937 117.795 407.849 118.382 409.308 119.551C410.768 120.72 411.495 122.244 411.495 124.107H407.047C407.047 123.251 406.729 122.54 406.093 121.974C405.458 121.409 404.618 121.123 403.568 121.123C402.593 121.123 401.796 121.35 401.176 121.802C400.557 122.254 400.25 122.858 400.25 123.617C400.25 124.301 400.536 124.834 401.112 125.211C401.688 125.588 402.846 125.97 404.591 126.353C406.336 126.735 407.704 127.193 408.7 127.726C409.696 128.259 410.434 128.895 410.913 129.638C411.393 130.381 411.635 131.286 411.635 132.347C411.635 134.129 410.897 135.573 409.422 136.677C407.946 137.781 406.013 138.335 403.616 138.335C401.995 138.335 400.546 138.044 399.275 137.457C398.004 136.87 397.019 136.068 396.308 135.039C395.603 134.016 395.247 132.912 395.247 131.727H399.566C399.625 132.778 400.024 133.585 400.756 134.156C401.489 134.722 402.458 135.007 403.67 135.007C404.882 135.007 405.732 134.786 406.341 134.339C406.95 133.892 407.257 133.311 407.257 132.589" fill="black"></path><path d="M345.431 0.937057H332.754V13.6197H345.431V0.937057Z" fill="#F78C38"></path></svg>