<svg xmlns="http://www.w3.org/2000/svg" width="200" height="200" fill="none">
  <path
    fill="url(#a)"
    d="m5.046 199.073-2.201 2.973c-.001-18.032-.659-28.886-.988-46.836-.112-6.104 1.214-12.541 1.143-18.71-.13-11.46.085-22.526 0-34-.039-5.272-1.586-10.738-1.528-16.014.144-13.69-.039-27.315-.411-40.955-.193-7.081.858-14.85.86-21.993.002-4.346-.485-8.696-.42-13.038.028-2.123-1-4.5-.455-8.454h2.652c.062 2.126.146 3.618.143 5.107C3.821 23.639 2.976 40.02 3 56.5c.012 8.076.956 16.242 1.078 24.31.156 10.23.346 20.451.507 30.674.044 2.793.076 5.6.044 8.389-.305 26.429-.13 52.829.417 79.2z"
  ></path>
  <path
    fill="url(#b)"
    d="M198.027.84 201 3.04c-18.032.002-28.887.659-46.836.988-6.105.112-12.541-1.213-18.71-1.143-11.46.13-22.526-.085-34 0-5.272.039-10.739 1.586-16.014 1.529-13.69-.144-27.316.038-40.955.41-7.081.194-14.851-.858-21.994-.859-4.345-.003-8.695.484-13.037.42-2.123-.03-4.5 1-8.454.454V2.188c2.126-.061 3.618-.145 5.106-.143 16.487.02 32.868.865 49.348.841 8.075-.012 16.241-.955 24.31-1.078 10.23-.156 20.45-.345 30.674-.507 2.793-.044 5.6-.076 8.389-.044 26.429.306 52.829.13 79.2-.417z"
  ></path>
  <defs>
    <linearGradient
      id="a"
      x1="2.046"
      x2="3.546"
      y1="2.046"
      y2="201.546"
      gradientUnits="userSpaceOnUse"
    >
      <stop></stop><stop offset="1" stop-opacity="0"></stop>
    </linearGradient>
    <linearGradient
      id="b"
      x1="1"
      x2="200.5"
      y1="3.84"
      y2="2.34"
      gradientUnits="userSpaceOnUse"
      ><stop></stop><stop offset="1" stop-opacity="0"></stop>
    </linearGradient>
  </defs>
</svg>